{"title":"How Do You Know 2010 DVDRip XviD-PRESTiGE","uid":6228675,"size":735496175,"categoryP":"video","categoryS":"movies","magnet":"?xt=urn:btih:9d96ef4f4698070bcffa9a2d34a2d47a1d4818c6&amp;dn=How+Do+You+Know+2010+DVDRip+XviD-PRESTiGE&amp;tr=udp%3A%2F%2Ftracker.openbittorrent.com%3A80&amp;tr=udp%3A%2F%2Fopen.demonii.com%3A1337&amp;tr=udp%3A%2F%2Ftracker.coppersurfer.tk%3A6969&amp;tr=udp%3A%2F%2Fexodus.desync.com%3A6969","seeders":1,"leechers":0,"uploader":"sceneline","files":8,"time":1299616708,"description":"-\nhttp:// www . torrentkit. com        \nhttp:// www .torrentkit. com       the fast  and The Hottest Private Tracker on the net\n\nPlease Seed back to make the speed Faster!!!\n\nand don't forget to visit      ...... www .torrentkit .com..........\n-*******************************************************************************\n                   How Do You Know 2010 DVDRip XviD-PRESTiGE\n*******************************************************************************\n\n-------------------------------------------------------------------------------\n                              General Information\n-------------------------------------------------------------------------------\nType.................: Movie\nMore Info............: http://twistedtorrents.com\nImage Format.........: AVI\n\n\n\nVideo Format.........: AVI\nSource...............: DVD 16x9\nOriginal Format......: NTSC\nGenre................: Action\nMovie Information....: http://www.imdb.com/title/tt1341188/\nCD1 Size.............: 701 MB\n\n-------------------------------------------------------------------------------\n                                 Release Notes\n-------------------------------------------------------------------------------\nHow Do You Know 2010 DVDRip XviD-PRESTiGE\n\nFormat                           : AVI\nFormat/Info                      : Audio Video Interleave\nFile size                        : 701 MiB\nDuration                         : 2h 0mn\nOverall bit rate                 : 811 Kbps\nWriting application              : VirtualDubMod 1.5.4.1 (build 2178/release)\nWriting library                  : VirtualDubMod build 2178/release\n\nVideo\nID                               : 0\nFormat                           : MPEG-4 Visual\nFormat profile                   : Advanced Simple@L5\nFormat settings, BVOP            : 1\nFormat settings, QPel            : No\nFormat settings, GMC             : No warppoints\nFormat settings, Matrix          : Custom\nCodec ID                         : XVID\nCodec ID/Hint                    : XviD\nDuration                         : 2h 0mn\nBit rate                         : 628 Kbps\nWidth                            : 624 pixels\nHeight                           : 336 pixels\nDisplay aspect ratio             : 1.857\nFrame rate                       : 23.976 fps\nColor space                      : YUV\nChroma subsampling               : 4:2:0\nBit depth                        : 8 bits\nScan type                        : Progressive\nCompression mode                 : Lossy\nBits/(Pixel*Frame)               : 0.125\nStream size                      : 543 MiB (77%)\nWriting library                  : XviD 1.2.1 (UTC 2008-12-04)\n\nAudio\nID                               : 1\nFormat                           : MPEG Audio\nFormat version                   : Version 1\nFormat profile                   : Layer 3\nMode                             : Joint stereo\nMode extension                   : MS Stereo\nCodec ID                         : 55\nCodec ID/Hint                    : MP3\nDuration                         : 2h 0mn\nBit rate mode                    : Variable\nBit rate                         : 171 Kbps\nNominal bit rate                 : 192 Kbps\nChannel(s)                       : 2 channels\nSampling rate                    : 48.0 KHz\nCompression mode                 : Lossy\nStream size                      : 148 MiB (21%)\nAlignment                        : Aligned on interleaves\nInterleave, duration             : 24 ms (0.58 video frame)\nInterleave, preload duration     : 107 ms\nWriting library                  : LAME3.98r\nEncoding settings                : -m j -V 4 -q 2 -lowpass 18.6 --abr 192\n\nPRESTiGE RELEASE Encoded By Mazz 8 March 2011\n\nCome And Join Us @ http://twistedtorrents.com\n\nEnjoy\n\n\n\n-------------------------------------------------------------------------------\nGenerated with Cool NFO Creator - http://fly.to/coolbeans\n-------------------------------------------------------------------------------","torrent":{"xt":"urn:btih:9d96ef4f4698070bcffa9a2d34a2d47a1d4818c6","amp;dn":"How+Do+You+Know+2010+DVDRip+XviD-PRESTiGE","amp;tr":["udp%3A%2F%2Ftracker.openbittorrent.com%3A80","udp%3A%2F%2Fopen.demonii.com%3A1337","udp%3A%2F%2Ftracker.coppersurfer.tk%3A6969","udp%3A%2F%2Fexodus.desync.com%3A6969"],"infoHash":"9d96ef4f4698070bcffa9a2d34a2d47a1d4818c6","infoHashBuffer":{"type":"Buffer","data":[157,150,239,79,70,152,7,11,207,250,154,45,52,162,212,122,29,72,24,198]},"announce":[],"urlList":[]}}